# xmcd CD database file
#
# Track frame offsets:
#	150
#	11502
#	24927
#	37965
#	58365
#	74759
#	93974
#	123478
#	140894
#
# Disc length: 2028 seconds
#
# Revision: 0
# Processed by: cddbd v1.5.1PL0 Copyright (c) Steve Scherf et al.
# Submitted via: CDex 1.51
#
DISCID=7f07ea09
DTITLE=The John Fenton Band - Rip It Up
DYEAR=2003
DGENRE=Blues
TTITLE0=Quarter2three
TTITLE1=Need your love
TTITLE2=I don't mind
TTITLE3=I'm ready
TTITLE4=Hesitation shuffle
TTITLE5=Life ain't long enough for livin'
TTITLE6=Wicked wicked wicked
TTITLE7=Tougher than tough
TTITLE8=E old lady
EXTD=YEAR: 2003
EXTT0=
EXTT1=
EXTT2=
EXTT3=
EXTT4=
EXTT5=
EXTT6=
EXTT7=
EXTT8=
PLAYORDER=
